<svg xmlns="http://www.w3.org/2000/svg" width="584" height="438" viewBox="0 0 584 438"><circle cx="292" cy="219" r="207.07" fill="#4495d7"/><path d="M355.68,117.33S368,95.61,384.35,89a5.2,5.2,0,0,1,5.52,1c3,2.78,7.28,9.88,10,28" fill="#ff9d98" stroke="#3e4147" stroke-linecap="round" stroke-linejoin="round" stroke-width="1"/><path d="M366.31,116.23s10.95-17.79,19.92-19.33c0,0,7.09-.74,10.34,22.83" fill="#e47e95"/><path d="M387.14,96.53a2.87,2.87,0,0,0-.86-.14,1.14,1.14,0,0,0-.26,0l-.19,0-.36.09a10.13,10.13,0,0,0-1.38.45,15.69,15.69,0,0,0-2.45,1.27,28.06,28.06,0,0,0-3.91,3,54.16,54.16,0,0,0-5.44,5.86,62.26,62.26,0,0,0-5.41,7.82c-.66,1.19-.58,1.24-.58,1.24s.06,0,.87-1,2.36-3.3,5.8-7.45a60.3,60.3,0,0,1,5.4-5.7,28.45,28.45,0,0,1,3.79-2.92A14.54,14.54,0,0,1,384.45,98a8.83,8.83,0,0,1,1.26-.41l.58-.13a2.48,2.48,0,0,1,.55.1,5.17,5.17,0,0,1,1.89,1.17,6.46,6.46,0,0,1,.77.8,7.77,7.77,0,0,1,.67.87,19.35,19.35,0,0,1,1.94,3.51,52,52,0,0,1,2.86,9.06c.25,1.13.47,2.08.65,2.86s.28,1.43.38,1.94c.44,2,.54,2,.54,2s.1,0-.11-2.09c-.06-.51-.13-1.16-.23-2s-.29-1.77-.5-2.92a44.77,44.77,0,0,0-2.71-9.29,20.82,20.82,0,0,0-2-3.69,8.91,8.91,0,0,0-.71-.94,8.11,8.11,0,0,0-.86-.9A5.62,5.62,0,0,0,387.14,96.53Z" fill="#3e4046"/><path d="M459.48,244.34s59.79,10,82.28-76.28l-23.67-26.31s-36,45.1-81.25,38.05" fill="#e47e95"/><path d="M509.2,227.3c12.64-11.21,24.82-29.51,32.57-59.24L518.1,141.75a127.35,127.35,0,0,1-22.45,20.8C488.5,183.39,473.14,240.27,509.2,227.3Z" fill="#ff9d98"/><path d="M459.48,244.34s59.79,10,82.28-76.28l-23.67-26.31s-36,45.1-81.25,38.05" fill="none" stroke="#3e4147" stroke-linecap="round" stroke-linejoin="round" stroke-width="1"/><path d="M463.44,301.49a144.53,144.53,0,0,0,2-25.51c-.08-2-.36-3.89-.51-5.84-4.84-63.16-15.78-102.63-34.8-125.82-18.12-22.08-33.79-36.64-62.87-39.9C312.2,98.22,291,135.74,291,135.74c-6.66,9.43-10.12,20.64-11.91,29.11a84.89,84.89,0,0,0-1.71,17.2c-.09,24.62-11.5,91.48-11.5,91.48a208,208,0,0,0-5.18,28Z" fill="#e47e95"/><path d="M306.83,294.39c1.29,2.48,2.66,4.84,4.09,7.1H449.54c9.83-11.7,16.32-21.9,15.95-25.51-.2-1.94-.36-3.89-.51-5.84-4.84-63.16-15.78-102.63-34.8-125.82-18.12-22.08-33.79-36.64-62.87-39.9-55.1-6.2-76.27,31.32-76.27,31.32a72.33,72.33,0,0,0-9.57,20.16c-1.6,11.41-1.09,25,2.8,41.27C284.26,197.17,297.15,275.73,306.83,294.39Z" fill="#ff9d98"/><path d="M464,301.49c.33-6.93,3.9-19.49-2.74-67-5.9-42.89-15.92-71.7-31.08-90.17-18.11-22.09-33.79-36.64-62.87-39.91C312.2,98.23,291,135.75,291,135.75c-6.66,9.42-10.12,20.64-11.9,29.11a84.88,84.88,0,0,0-1.72,17.19c-.09,24.63-11.5,91.49-11.5,91.49a209.57,209.57,0,0,0-5.18,28H464Z" fill="none" stroke="#3e4147" stroke-linecap="round" stroke-linejoin="round" stroke-width="1"/><path d="M211.52,207.74s-34.71,118.09,71.94,68.17" fill="#e47e95" stroke="#3e4046" stroke-linecap="round" stroke-linejoin="round" stroke-width="1.01"/><path d="M291.67,139.1s-.07-31.51,10-41.79c0,0,8.34-7.55,30.69,17.5" fill="#ff9d98"/><path d="M304.64,95.8a6.57,6.57,0,0,0-2.91.85c-.11.08-.21.13-.35.24a3.43,3.43,0,0,0-.27.28l-.47.54a11.46,11.46,0,0,0-.88,1.1,27,27,0,0,0-2.65,4.66,52,52,0,0,0-3,9.23,109.24,109.24,0,0,0-2.34,15.54,81,81,0,0,0-.25,9.49c.07,1.36.16,1.36.16,1.36s.07,0,.18-1.35.27-4.05.79-9.42a110.63,110.63,0,0,1,2.41-15.4,51.26,51.26,0,0,1,3-9,24.77,24.77,0,0,1,2.55-4.48,11.86,11.86,0,0,1,.81-1l.45-.5a1.25,1.25,0,0,1,.43-.37,5.69,5.69,0,0,1,2.47-.71,11.72,11.72,0,0,1,4.6.63l1.09.34,1,.46,1,.45c.33.15.64.35,1,.52.63.36,1.28.67,1.86,1l1.72,1.13.83.55.77.6,1.48,1.14c.84.6,1.55,1.27,2.24,1.85l1.93,1.66,3,2.82c.87.78,1.52,1.49,2.1,2.06l1.41,1.39c1.5,1.44,1.58,1.38,1.58,1.38s.07-.07-1.26-1.67l-1.29-1.51c-.54-.61-1.16-1.36-2-2.18s-1.79-1.8-2.91-2.94L323,104.79c-.69-.6-1.4-1.28-2.24-1.9l-1.51-1.16-.78-.61-.84-.56-1.76-1.17c-.6-.38-1.27-.72-1.92-1.09-.33-.18-.65-.37-1-.54l-1.07-.46-1.08-.47-1.15-.38A12.72,12.72,0,0,0,304.64,95.8Z" fill="#3e4147"/><path d="M297.85,135.71s-.05-22.39,7.08-29.69c0,0,5.92-5.36,21.82,12.45" fill="#e47e95"/><path d="M304.72,105.55s-.08.07-.13.1l-.07.08-.14.16-.28.32a7.79,7.79,0,0,0-.52.65c-.34.42-.61.89-.9,1.33a22.8,22.8,0,0,0-1.34,2.72,36.19,36.19,0,0,0-1.7,5.21,67.55,67.55,0,0,0-1.52,8.74,65.29,65.29,0,0,0-.41,9.5c.06,1.36.15,1.36.15,1.36s.07,0,.19-1.35.27-4.05.95-9.4a71.16,71.16,0,0,1,1.58-8.61,35.35,35.35,0,0,1,1.68-5.07,21.52,21.52,0,0,1,1.29-2.59c.27-.41.52-.84.83-1.23.16-.2.3-.41.47-.59l.25-.28.13-.14.06-.07h0a4.48,4.48,0,0,1,2.32-.6,10,10,0,0,1,2.4.37c.38.13.76.24,1.12.37l1,.45a20.79,20.79,0,0,1,1.89,1,45.79,45.79,0,0,1,7.53,5.77l2.15,2,1.41,1.38c1.49,1.44,1.58,1.38,1.58,1.38s.07-.07-1.26-1.67c-.34-.4-.77-.89-1.29-1.51s-1.25-1.29-2.07-2.13a39.88,39.88,0,0,0-7.55-6.06c-.62-.32-1.24-.74-2-1l-1.1-.49c-.39-.14-.8-.26-1.21-.39a10.89,10.89,0,0,0-2.68-.42A5.2,5.2,0,0,0,304.72,105.55Z" fill="#3e4046"/><ellipse cx="385.17" cy="171.69" rx="29.64" ry="27.04" fill="#e47e95"/><path d="M353.64,129.66A56,56,0,0,1,365.88,153" fill="none" stroke="#3e4147" stroke-linecap="round" stroke-linejoin="round" stroke-width="6.96"/><path d="M370.84,125.77c9.5,10.41,11.51,25.84,11.51,25.84" fill="none" stroke="#3e4147" stroke-linecap="round" stroke-linejoin="round" stroke-width="6.96"/><ellipse cx="349.31" cy="135.85" rx="14.57" ry="20.62" transform="translate(-21.17 192.59) rotate(-29.96)" fill="#eff6fb" stroke="#3e4147" stroke-linecap="round" stroke-linejoin="round" stroke-width="1.04" opacity="0.33" style="isolation:isolate"/><ellipse cx="382.16" cy="127.76" rx="14.52" ry="20.68" transform="translate(-8.07 228.22) rotate(-32.92)" fill="#eff6fb" stroke="#3e4147" stroke-linecap="round" stroke-linejoin="round" stroke-width="1.04" opacity="0.33" style="isolation:isolate"/><ellipse cx="349.31" cy="135.85" rx="14.57" ry="20.62" transform="translate(-21.17 192.59) rotate(-29.96)" fill="none" stroke="#3e4147" stroke-linecap="round" stroke-linejoin="round" stroke-width="2.41"/><ellipse cx="382.16" cy="127.76" rx="14.52" ry="20.68" transform="translate(-8.07 228.22) rotate(-32.92)" fill="none" stroke="#3e4147" stroke-linecap="round" stroke-linejoin="round" stroke-width="2.41"/><path d="M352.59,120.59a10.49,10.49,0,0,1,3.92-3.31c3.31-1.6,7.27-1.39,11.13.26" fill="none" stroke="#3e4147" stroke-linecap="round" stroke-linejoin="round" stroke-width="2.41"/><ellipse cx="340.55" cy="127.45" rx="3.34" ry="4.51" fill="#fff"/><ellipse cx="372.87" cy="119.25" rx="3.34" ry="4.51" fill="#fff"/><path d="M397.7,189.73c9.79-2.86,17.26-10,18.86-19.43,2.39-14-9.23-27.71-26-30.56S358.38,146,356,160c-2,12,6.21,23.8,19.14,28.71" fill="#ff9d98"/><path d="M368.14,144a32.39,32.39,0,0,1,12.28-4,35.89,35.89,0,0,1,12.24.7,32.64,32.64,0,0,1,18.67,11.69,24.94,24.94,0,0,1,4.4,9,22.22,22.22,0,0,1,.26,9.34c-.08.37-.16.74-.23,1.11s-.21.72-.32,1.07c-.19.72-.49,1.39-.74,2.08a22.69,22.69,0,0,1-2.06,3.76,24.29,24.29,0,0,1-5.55,5.82,30.21,30.21,0,0,1-5.24,3.24c-.67.36-1.26.59-1.74.81s-.86.38-1.18.5c-1.25.5-1.23.58-1.23.58s0,.08,1.35-.26a9.71,9.71,0,0,0,1.24-.37,18.06,18.06,0,0,0,1.82-.69,25.84,25.84,0,0,0,5.51-3.11,25.3,25.3,0,0,0,5.78-6,23,23,0,0,0,2.15-3.91,22.15,22.15,0,0,0,.78-2.16l.33-1.12c.09-.38.16-.77.25-1.15a23.16,23.16,0,0,0-.25-9.75,25.77,25.77,0,0,0-4.55-9.42,33.64,33.64,0,0,0-19.22-12.06,36.6,36.6,0,0,0-12.58-.74,33.12,33.12,0,0,0-12.67,4.15,26.52,26.52,0,0,0-8.55,8,22.91,22.91,0,0,0-3.76,10.34,22.49,22.49,0,0,0,1.28,10.14,26.93,26.93,0,0,0,4.69,8,30.6,30.6,0,0,0,7.38,6.3,29,29,0,0,0,2.62,1.41c.75.34,1.33.64,1.83.8,2,.71,2,.61,2,.61s0-.1-1.83-1c-.47-.21-1-.56-1.73-.93s-1.52-.9-2.49-1.53a32.86,32.86,0,0,1-7-6.27,26,26,0,0,1-4.5-7.75,21.33,21.33,0,0,1-1.22-9.7,21.74,21.74,0,0,1,3.6-9.88A25.41,25.41,0,0,1,368.14,144Z" fill="#3e4147"/><path d="M397.7,189.73c9.79-2.86,17.26-10,18.86-19.43,2.39-14-9.23-27.71-26-30.56S358.38,146,356,160c-2,12,6.21,23.8,19.14,28.71" fill="#e47e95"/><path d="M368.14,144a31.61,31.61,0,0,1,11.14-3.86,35.62,35.62,0,0,1,11.48.15,33.49,33.49,0,0,1,19,10.2,26,26,0,0,1,5.32,8.79,21.83,21.83,0,0,1,1.15,9.75l-.13,1.21-.25,1.17a8.57,8.57,0,0,1-.3,1.16c-.12.38-.22.77-.35,1.14a23.17,23.17,0,0,1-2,4.23,24.77,24.77,0,0,1-6.1,6.65,34.08,34.08,0,0,1-6.26,3.73c-1.66.76-2.77,1.15-3.12,1.42a12.36,12.36,0,0,0,3.34-.85,27.34,27.34,0,0,0,6.59-3.56,25.61,25.61,0,0,0,6.39-6.94,23.43,23.43,0,0,0,2.11-4.43c.13-.4.24-.8.36-1.19l.18-.61.13-.61c.08-.41.19-.82.26-1.23l.13-1.26A22.8,22.8,0,0,0,416,158.84a27.12,27.12,0,0,0-5.57-9.12,34.51,34.51,0,0,0-19.56-10.44,36.85,36.85,0,0,0-11.77-.13,32.48,32.48,0,0,0-11.43,4,26.17,26.17,0,0,0-8.18,7.4,22.8,22.8,0,0,0-4,10,23.07,23.07,0,0,0,.94,10.37,26.23,26.23,0,0,0,4.92,8.73,30.48,30.48,0,0,0,9,7.25,18.14,18.14,0,0,0,4.86,1.87c-.41-.38-2.07-1.09-4.51-2.51a33.45,33.45,0,0,1-8.57-7.23,25.32,25.32,0,0,1-4.73-8.39,21.58,21.58,0,0,1,2.94-19.45A25.15,25.15,0,0,1,368.14,144Z" fill="#3e4046"/><ellipse cx="388.13" cy="161.39" rx="21.62" ry="26.78" transform="translate(163.97 516.98) rotate(-80.35)" fill="#ff9d98"/><path d="M411.65,172.05a20,20,0,0,1-5.49,5.76,26.49,26.49,0,0,1-7,3.44,31.33,31.33,0,0,1-14.78.9c-9.49-1.66-17.49-7.49-20.8-14.87-.27-.7-.55-1.35-.79-2s-.35-1.27-.52-1.85a20.94,20.94,0,0,1-.43-3.15c0-.45-.06-.86-.08-1.24s0-.7,0-1a7,7,0,0,0-.05-1.19,7.2,7.2,0,0,0-.3,1.14l-.18,1c0,.37,0,.8,0,1.27a17.1,17.1,0,0,0,.26,3.31c.16.62.31,1.27.48,2s.5,1.37.77,2.1a25.17,25.17,0,0,0,8.41,10,32.62,32.62,0,0,0,28.38,4.51,27.54,27.54,0,0,0,7.23-3.58,20.79,20.79,0,0,0,5.74-6,18.76,18.76,0,0,0,2.59-7.13,17.55,17.55,0,0,0-.47-7.37,20.16,20.16,0,0,0-3-6.47,24.13,24.13,0,0,0-4.6-5.09A28.73,28.73,0,0,0,396.9,141a17.31,17.31,0,0,0-5.14-.92c.48.31,2.25.66,4.9,1.61.66.24,1.36.56,2.13.86s1.54.76,2.39,1.17,1.67,1,2.57,1.54,1.77,1.23,2.62,2a23.68,23.68,0,0,1,4.41,4.88,19.34,19.34,0,0,1,2.86,6.17A17.25,17.25,0,0,1,411.65,172.05Z" fill="#3e4147"/><path d="M375.09,152.23a2.3,2.3,0,0,1,2.6-1.58,4.55,4.55,0,0,1,3.44,2.14c2.23,3.39,7.68,12,8.61,16.68,0,0,.48,3.59-2.84,3.07a5.1,5.1,0,0,1-3.66-2.75l-8-15.31A2.94,2.94,0,0,1,375.09,152.23Z" fill="#3e4147"/><path d="M378.8,154.35a3.08,3.08,0,0,0-3.85-1,2.79,2.79,0,0,1,.14-1.11,2.3,2.3,0,0,1,2.6-1.58,4.58,4.58,0,0,1,3.44,2.14c2.23,3.39,7.68,12,8.61,16.68,0,0,.48,3.59-2.84,3.07l-.09,0C388.21,168.68,378.8,154.35,378.8,154.35Z" fill="#e47e95"/><path d="M375.09,152.23a2.3,2.3,0,0,1,2.6-1.58,4.55,4.55,0,0,1,3.44,2.14c2.23,3.39,7.68,12,8.61,16.68,0,0,.48,3.59-2.84,3.07a5.1,5.1,0,0,1-3.66-2.75l-8-15.31A2.94,2.94,0,0,1,375.09,152.23Z" fill="none" stroke="#3e4147" stroke-linecap="round" stroke-linejoin="round" stroke-width="1"/><path d="M390.44,149.23a2.29,2.29,0,0,1,2.6-1.57,4.54,4.54,0,0,1,3.44,2.13c2.23,3.39,7.68,12,8.6,16.68,0,0,.49,3.59-2.83,3.07a5.14,5.14,0,0,1-3.67-2.75l-8-15.31A2.85,2.85,0,0,1,390.44,149.23Z" fill="#3e4147"/><path d="M394.14,151.36a3.1,3.1,0,0,0-3.85-1,2.76,2.76,0,0,1,.14-1.1,2.3,2.3,0,0,1,2.61-1.58,4.58,4.58,0,0,1,3.43,2.14c2.23,3.39,7.68,12,8.61,16.68,0,0,.48,3.59-2.84,3.07l-.09,0C403.55,165.68,394.14,151.36,394.14,151.36Z" fill="#e47e95"/><path d="M390.44,149.23a2.29,2.29,0,0,1,2.6-1.57,4.54,4.54,0,0,1,3.44,2.13c2.23,3.39,7.68,12,8.6,16.68,0,0,.49,3.59-2.83,3.07a5.14,5.14,0,0,1-3.67-2.75l-8-15.31A2.85,2.85,0,0,1,390.44,149.23Z" fill="none" stroke="#3e4147" stroke-linecap="round" stroke-linejoin="round" stroke-width="1"/><ellipse cx="293.81" cy="154.59" rx="8.52" ry="5.05" transform="translate(50.2 380.16) rotate(-70.55)" fill="#ffbfe6"/><path d="M376.26,300.93,22.13,301c-10.83.13-10.83.44-10.83.44s0,.31,10.83.44l354.13.07,172.38,0c16.61-.08,16.61-.49,16.61-.49s0-.41-16.61-.48Z" fill="#3e4147"/><path d="M300.64,158.77s-50.73,2.9-95.13,12.85c0,0,20.15,88.62,34.21,110.23,0,0,66.53.55,84.82-3.61C324.55,278.24,306.94,204,300.64,158.77Z" fill="#eff6fb"/><path d="M324.55,278.24s-.1-.4-.27-1.14l-.68,1.34Z" fill="#eff6fb"/><path d="M295.56,165.18a1.56,1.56,0,0,1-.64.06,1.42,1.42,0,0,1-.53-.4c-2.28-2.35-2.06-4.19-1.06-5.57l-3.12.25a4.42,4.42,0,0,1-2.1,3.2,1.82,1.82,0,0,1-.62.29,1.61,1.61,0,0,1-.71-.21,6.77,6.77,0,0,1-3.18-2.71l-2.88.26a4,4,0,0,1,.68,5.22,1,1,0,0,1-.37.44,1.6,1.6,0,0,1-.64,0c-4-.66-4.86-3-4.87-5.16-2.27.23-4.67.47-7.15.74,2.34.41,6.49,1.42,5.59,5.79a1,1,0,0,1-.2.47,1.31,1.31,0,0,1-.54.13c-5.32.32-5.55-4.33-5.67-6.29-8,.88-16.94,2-26.3,3.39,0,1.66-.83,3.21-3.85,3.36a1.64,1.64,0,0,1-.58-.07,1.11,1.11,0,0,1-.38-.43,5.75,5.75,0,0,1-.82-2l-4.5.72a6.68,6.68,0,0,1-1.49.63,1.56,1.56,0,0,1-.64.06,1.08,1.08,0,0,1-.39-.27c-1.72.29-3.46.59-5.19.91,1.72,1.65,3.45,4.14.47,6.52a.72.72,0,0,1-1,.05c-3.56-1.87-3.15-4.28-2.21-6.06-2.54.47-5.06,1-7.59,1.49,3,.73,6.42,2.45,5.15,7.18a1.31,1.31,0,0,1-.32.63,1.86,1.86,0,0,1-.73.18c-6.47.48-7.07-4.47-7.12-7.37l-4.51,1s.06.24.16.68a6.84,6.84,0,0,1,2.12,3.61,1.42,1.42,0,0,1,.06.73,1.71,1.71,0,0,1-.51.49c-.17.1-.32.2-.48.28.23.94.48,2,.75,3.13l9.73-.54a1,1,0,0,1,.66.29l8,9.19c.15.17.33.15.41,0l4.27-9.87a.67.67,0,0,1,.54-.35l10.32-.57c.22,0,.33.12.24.3l-8.91,17.7a1.15,1.15,0,0,0-.1.69l2,10.22a.33.33,0,0,1-.33.39l-9.23.51a.45.45,0,0,1-.47-.35l-2-10.21a1.77,1.77,0,0,0-.35-.68L208,182l1.11,4.57a11.66,11.66,0,0,1,1.25.94,1.64,1.64,0,0,1,.51.6,1.73,1.73,0,0,1,0,.72,7.38,7.38,0,0,1-.73,1.71c.19.79.39,1.6.6,2.42a3.13,3.13,0,0,1,2.83-1.35,1,1,0,0,1,.47.06,1.61,1.61,0,0,1,.32.37c2,3.35-.79,4.57-2.57,5.13,4.51,17.82,10.94,41.64,17.38,60.22,2.41,1.18,5.16,3.26,3.23,6.93a1,1,0,0,1-.37.44l-.19,0c.4,1,.79,2.06,1.19,3a4.69,4.69,0,0,1,2.24,5.34,64.48,64.48,0,0,0,4.54,8.73s2,0,5.31,0l2.48-5.71a.66.66,0,0,1,.54-.35l10.32-.58c.22,0,.33.13.23.31l-3.18,6.32,2.81,0c2.68-3.32,5.91-1.86,8.27-.08,6.28-.09,13.13-.22,19.92-.44,1.68-2.17,4.52-4.32,8.87-.6a2.12,2.12,0,0,1,.26.26l2.7-.13-6.34-6.7c-.15-.17-.1-.31.12-.32l10.28-.57a.9.9,0,0,1,.66.28l5.8,6.67c1.31-.1,2.59-.2,3.81-.31l3.05-7.06a.7.7,0,0,1,.54-.36l6.94-.38c-3.16-13.66-10.91-47.88-16.89-79.91a3.22,3.22,0,0,1-1.42-3.68.84.84,0,0,1,.17-.39.92.92,0,0,1,.44-.11h0c-.3-1.65-.6-3.31-.88-4.94l-5.78,11.46a1.24,1.24,0,0,0-.09.69l2,10.22a.34.34,0,0,1-.33.39l-9.23.51a.46.46,0,0,1-.48-.34l-2-10.22a1.63,1.63,0,0,0-.36-.67l-15.44-16.35c-.15-.16-.1-.31.12-.32l10.28-.57a1,1,0,0,1,.66.29l8,9.19c.15.17.33.15.41,0l4.27-9.86a.68.68,0,0,1,.54-.36l6.32-.35c-1.07-6.3-2-12.37-2.81-18l-2.57.16C299.11,161.16,299.58,164,295.56,165.18Zm-69.88,18.69a1.31,1.31,0,0,1-.48.24,1.19,1.19,0,0,1-.56-.19c-5.11-2.68-2-6.49-1-7.92C225.19,177.29,229.67,180.68,225.68,183.87Zm5.07-6.62a2.18,2.18,0,0,1-.79-.11,1.8,1.8,0,0,1-.55-.58c-4.23-6.26,2.67-7.78,5.08-8.46C235.38,170.47,238.25,177,230.75,177.25Zm39.45,46.88a2.18,2.18,0,0,1-.79-.11,1.8,1.8,0,0,1-.55-.58c-4.23-6.26,2.67-7.78,5.08-8.46C274.83,217.35,277.71,223.85,270.2,224.13Zm9.74-15.8c.57,1.79,2.45,6.72-3.08,7a1.64,1.64,0,0,1-.58-.07,1.2,1.2,0,0,1-.39-.43C273,210.08,278.14,208.86,279.94,208.33Zm-10.86,5.86a1.52,1.52,0,0,1-.63.06,1.38,1.38,0,0,1-.54-.39c-4.43-4.59.61-7.25,2.36-8.3C271.41,207.43,274.84,212.48,269.08,214.19Zm-3.95,16.56a1.24,1.24,0,0,1-.48.24,1.13,1.13,0,0,1-.55-.19c-5.12-2.68-2-6.49-1-7.92C264.64,224.17,269.13,227.56,265.13,230.75Zm-1.78-9.34a1.39,1.39,0,0,1-.48.24,1.32,1.32,0,0,1-.56-.19c-5.12-2.68-2-6.49-1-7.92C262.85,214.82,267.33,218.22,263.35,221.41Zm-4.19-19c2,1.52,7.63,5.54,2.47,9.36a1.5,1.5,0,0,1-.62.29,1.61,1.61,0,0,1-.71-.21C253.82,208.63,257.84,204.08,259.16,202.37Zm3.17-22.43c1.35-1.15,4.9-4.6,8.48-.24a1.27,1.27,0,0,1,.28.49,1.11,1.11,0,0,1-.19.48C268.14,184.86,263.9,181.19,262.33,179.94Zm-4.68,44.13a1.23,1.23,0,0,1-.32.63,1.81,1.81,0,0,1-.73.18c-7.46.55-7.11-6.12-7.13-8.54C252.09,216.74,259.42,217.48,257.65,224.07Zm-2.72-9.49a1.08,1.08,0,0,1-.37.44,1.89,1.89,0,0,1-.64,0c-6.29-1-4.84-6.36-4.44-8.3C251.58,207.56,257.53,209.61,254.93,214.58ZM240,175.32a2.26,2.26,0,0,1-.68-.44,1.49,1.49,0,0,1-.23-.72c-.79-7,6.47-5.29,9.08-4.8C247.83,171.71,247.22,178.34,240,175.32ZM252.6,179c-1.08,1.39-3.83,5.45-8.13,1.66a2,2,0,0,1-.36-.45.83.83,0,0,1,.09-.51C246.05,175,250.83,178,252.6,179ZM241,185.76c3.86-5.58,9.09-.3,11.06,1.5-1.83,1.53-6.66,6.05-11-.15a1.89,1.89,0,0,1-.32-.7A1.14,1.14,0,0,1,241,185.76Zm6.47,30.64a.93.93,0,0,1-.21.47,1.27,1.27,0,0,1-.54.13c-5.53.33-5.57-4.7-5.68-6.52C243,210.8,248.52,211.45,247.49,216.4Zm-8.62-25.77a.78.78,0,0,1,.18-.38.73.73,0,0,1,.44-.11c4.56-.27,4.59,3.88,4.68,5.38C242.55,195.25,238,194.71,238.87,190.63Zm8.38,32.15a1.38,1.38,0,0,1,.05.73,1.49,1.49,0,0,1-.51.49c-5.9,3.76-9-2.67-10.25-4.92C238.9,218.32,245.35,215.82,247.25,222.78Zm3,12.89c-1.89,6.55-8.35,2.65-10.71,1.36,1.24-2,4.35-7.72,10.25-2.68a1.92,1.92,0,0,1,.52.6A2,2,0,0,1,250.23,235.67Zm2.69,2.79a.92.92,0,0,1,.47.06,1.18,1.18,0,0,1,.32.36c2.38,3.91-1.86,4.92-3.34,5.36C249.91,242.76,248.36,238.69,252.92,238.46Zm-6.45,25.42a1.56,1.56,0,0,1-.64.06,1.37,1.37,0,0,1-.53-.39c-4.44-4.58.61-7.24,2.36-8.29C248.79,257.12,252.22,262.17,246.47,263.88Zm-2.14-35.17a1.15,1.15,0,0,1,.28.49,1,1,0,0,1-.18.48c-2.77,4.18-7,.52-8.58-.73C237.2,227.79,240.76,224.35,244.33,228.71Zm-7.78,23.36c2,1.52,7.62,5.54,2.47,9.35a1.7,1.7,0,0,1-.62.3,1.66,1.66,0,0,1-.71-.22C231.2,258.33,235.22,253.77,236.55,252.07Zm2.14,11.16c1.55,1.29,6,4.68,2,7.87a1.39,1.39,0,0,1-.48.24,1.16,1.16,0,0,1-.56-.19C234.57,268.47,237.67,264.66,238.69,263.23Zm3.83,17.21a1.05,1.05,0,0,1-.48.24,1.14,1.14,0,0,1-.56-.18c-5.11-2.68-2-6.49-1-7.92C242,273.86,246.51,277.25,242.52,280.44Zm5.07-6.62a2.18,2.18,0,0,1-.79-.11,1.8,1.8,0,0,1-.55-.58c-4.23-6.26,2.67-7.78,5.08-8.45C252.22,267,255.09,273.54,247.59,273.82Zm6.07-8.87a1.19,1.19,0,0,1-.38-.43c-2.89-4.74,2.24-6,4-6.5.57,1.78,2.45,6.72-3.09,7A1.41,1.41,0,0,1,253.66,265Zm3.19,6.94a2.67,2.67,0,0,1-.68-.43,1.58,1.58,0,0,1-.23-.72c-.79-7,6.47-5.3,9.08-4.8C264.67,268.29,264.06,274.92,256.85,271.89Zm4.47,5.3a1.59,1.59,0,0,1-.36-.45.88.88,0,0,1,.08-.51c1.85-4.66,6.64-1.68,8.4-.69C268.36,276.93,265.61,281,261.32,277.19Zm12.53-22.35-9.24.51a.46.46,0,0,1-.47-.35l-1.95-10.21a1.6,1.6,0,0,0-.36-.68l-15.44-16.34c-.15-.16-.1-.31.12-.32l10.27-.57a.91.91,0,0,1,.67.28l8,9.19c.15.17.33.16.41,0l4.27-9.87a.66.66,0,0,1,.54-.35l10.32-.58c.22,0,.33.13.23.31l-8.91,17.69a1.28,1.28,0,0,0-.09.7l2,10.22A.32.32,0,0,1,273.85,254.84Zm17.68-20.69c-1.83,1.52-6.66,6-11-.15a2.3,2.3,0,0,1-.32-.7,1.26,1.26,0,0,1,.27-.65C284.34,227.06,289.57,232.34,291.53,234.15Zm-13.21,3.36a1,1,0,0,1,.18-.38.73.73,0,0,1,.44-.11c4.56-.27,4.59,3.88,4.69,5.38C282,242.13,277.48,241.59,278.32,237.51Zm11.62,38.54c-2.77,4.19-7,.52-8.58-.73,1.35-1.16,4.91-4.61,8.49-.25a1.29,1.29,0,0,1,.27.5A1,1,0,0,1,289.94,276.05Zm2.87-6.17a1.49,1.49,0,0,1-.51.49c-5.9,3.76-9-2.67-10.25-4.92,2.36-.77,8.82-3.26,10.71,3.7A1.38,1.38,0,0,1,292.81,269.88Zm17.84,7.24a1.24,1.24,0,0,1-.48.24,1.13,1.13,0,0,1-.55-.19c-5.12-2.68-2-6.49-1-7.92C310.16,270.54,314.64,273.93,310.65,277.12Zm5.06-6.62a2.18,2.18,0,0,1-.79-.11,1.8,1.8,0,0,1-.54-.58c-4.24-6.26,2.66-7.78,5.07-8.46C320.35,263.72,323.23,270.22,315.71,270.5Zm.08-18.57c1.14,1.86,4.56,6.91-1.19,8.62a1.52,1.52,0,0,1-.63.06,1.38,1.38,0,0,1-.54-.39C309,255.65,314,253,315.79,251.93Zm-6.93,15.85a.73.73,0,0,1-1,.05c-5.11-2.68-2-6.49-1-7.92C308.36,261.19,312.85,264.59,308.86,267.78Zm-4.18-19c1.95,1.52,7.62,5.54,2.46,9.36a1.5,1.5,0,0,1-.62.29,1.68,1.68,0,0,1-.71-.21C299.33,255,303.35,250.45,304.68,248.74Zm-1.52,21.7a1.28,1.28,0,0,1-.31.62,1.83,1.83,0,0,1-.74.19c-7.46.55-7.11-6.13-7.12-8.54C297.61,263.11,304.93,263.85,303.16,270.44ZM295,253.09c2.11.84,8.06,2.89,5.45,7.86a1,1,0,0,1-.37.44,1.6,1.6,0,0,1-.64,0C293.15,260.36,294.59,255,295,253.09Zm-2,9.68a.85.85,0,0,1-.21.47,1.27,1.27,0,0,1-.54.13c-5.53.33-5.56-4.7-5.68-6.52C288.54,257.17,294,257.82,293,262.77Zm-.94-36.93c-1.08,1.39-3.83,5.45-8.13,1.66a2,2,0,0,1-.36-.45.83.83,0,0,1,.09-.51C285.5,221.87,290.29,224.85,292.06,225.84Zm-4.42-9.59c-.36,2.34-1,9-8.17,5.95a2.34,2.34,0,0,1-.69-.44,1.51,1.51,0,0,1-.22-.72C277.77,214,285,215.76,287.64,216.25Zm-8.24-26.81a1,1,0,0,1,.47.06,1.61,1.61,0,0,1,.32.37c2.38,3.91-1.86,4.92-3.34,5.36C276.38,193.75,274.83,189.68,279.4,189.44Zm-3.16-4.1a1.64,1.64,0,0,1,.51.6,1.73,1.73,0,0,1-.05.72c-1.89,6.55-8.35,2.64-10.71,1.36C267.23,186,270.34,180.29,276.24,185.34Zm-2.47-10.84a1.49,1.49,0,0,1-.51.5c-5.9,3.75-9-2.68-10.25-4.92,2.36-.78,8.81-3.27,10.71,3.7A1.34,1.34,0,0,1,273.77,174.5Zm10.35.56a1.28,1.28,0,0,1-.32.63,2.05,2.05,0,0,1-.73.18c-7.46.55-7.11-6.13-7.13-8.54C278.56,167.73,285.89,168.47,284.12,175.06Zm3.66-10.53c1.55,1.28,6,4.67,2,7.86a1.1,1.1,0,0,1-.48.24,1.11,1.11,0,0,1-.56-.18C283.66,169.77,286.76,166,287.78,164.53Zm3.83,17.21a.73.73,0,0,1-1,0c-5.11-2.68-2-6.49-1-7.92C291.11,175.16,295.6,178.55,291.61,181.74Zm5.06-6.62a2.18,2.18,0,0,1-.79-.11,1.8,1.8,0,0,1-.55-.58c-4.23-6.26,2.67-7.78,5.08-8.45C301.31,168.34,304.18,174.84,296.67,175.12Z" fill="#d8e9f7"/><path d="M300.64,158.77s-50.73,2.9-95.13,12.85c0,0,20.15,88.62,34.21,110.23,0,0,66.53.55,84.82-3.61C324.55,278.24,306.94,204,300.64,158.77Z" fill="none" stroke="#3e4147" stroke-miterlimit="10" stroke-width="1"/><path d="M227.05,251.74l-1.64-8.32s12.39-17,17-35.38a2.68,2.68,0,0,0-2.46-3.32,34.11,34.11,0,0,0-12.54,1.89s6.49-9.11,8.11-15a1.18,1.18,0,0,0-1-1.48c-5.16-.73-24.36-2-27.45,18.49a35.88,35.88,0,0,0,3.13,20.55" fill="#e47e95" stroke="#3e4046" stroke-linecap="round" stroke-linejoin="round" stroke-width="1"/><path d="M291.67,320.38l-87.35,28.74s44.65,10.65,109.4,10.65h29.71l3.1,6.59,51.16-3,7.41,13.91s107.84,5.15,163.48-14.94l-93.89-33.49-29.24,3.42-6.18-11.89L312,318.56Z" fill="#357fc1"/><ellipse cx="184.77" cy="329.23" rx="144.67" ry="12.47" fill="#357fc1"/><path d="M396,318.55s-16.78,4.61-99.24,1.18l-70.48,26.36s103.68,15.2,191.45,4.63C417.73,350.72,397.12,323.16,396,318.55Z" fill="#fff" stroke="#3e4147" stroke-linecap="round" stroke-linejoin="round" stroke-width="1"/><line x1="260.66" y1="337.06" x2="347.11" y2="343.24" fill="none" stroke="#85c3e9" stroke-linecap="round" stroke-linejoin="round" stroke-width="1"/><line x1="271.74" y1="331.85" x2="355.04" y2="336.51" fill="none" stroke="#85c3e9" stroke-linecap="round" stroke-linejoin="round" stroke-width="1"/><line x1="360.85" y1="329.07" x2="279.62" y2="326.68" fill="none" stroke="#85c3e9" stroke-linecap="round" stroke-linejoin="round" stroke-width="1"/><line x1="372.04" y1="325.48" x2="290.5" y2="323.09" fill="none" stroke="#85c3e9" stroke-linecap="round" stroke-linejoin="round" stroke-width="1"/><line x1="298.59" y1="321.52" x2="249.74" y2="343.48" fill="none" stroke="#85c3e9" stroke-linecap="round" stroke-linejoin="round" stroke-width="1"/><path d="M385,329.57s75.66-1.95,87.91-9.19c0,0,62.22,24.67,100.58,33.68,0,0-7,12.11-157.7,19.78Z" fill="#fff" stroke="#3e4147" stroke-linecap="round" stroke-linejoin="round" stroke-width="1"/><polygon points="409.41 364.65 505.51 354.77 446.81 331.69 389.33 337 409.41 364.65" fill="#dee4eb"/><path d="M385,329.57s75.66-1.95,87.91-9.19c0,0,62.22,24.67,100.58,33.68,0,0-7,12.11-157.7,19.78Z" fill="none" stroke="#3e4147" stroke-linecap="round" stroke-linejoin="round" stroke-width="1"/><line x1="524.29" y1="344.84" x2="405.74" y2="355.37" fill="none" stroke="#85c3e9" stroke-linecap="round" stroke-linejoin="round" stroke-width="1"/><line x1="509.53" y1="336.51" x2="403.13" y2="346.59" fill="none" stroke="#85c3e9" stroke-linecap="round" stroke-linejoin="round" stroke-width="1"/><line x1="398.05" y1="340.24" x2="489.1" y2="328.81" fill="none" stroke="#85c3e9" stroke-linecap="round" stroke-linejoin="round" stroke-width="1"/><line x1="477.47" y1="327.44" x2="533.56" y2="350.62" fill="none" stroke="#85c3e9" stroke-linecap="round" stroke-linejoin="round" stroke-width="1"/><line x1="401.81" y1="337.46" x2="422.77" y2="363.38" fill="none" stroke="#85c3e9" stroke-linecap="round" stroke-linejoin="round" stroke-width="1"/><polygon points="339.34 314.7 441.99 311.39 509.53 354.72 353.38 364.92 339.34 314.7" fill="#fff" stroke="#3e4147" stroke-linecap="round" stroke-linejoin="round" stroke-width="1"/><path d="M452.86,338.17c4.68,3.31,9.47,7.51,15.67,11.84-.75-1.8-2.89-4.67-3.86-6.26-.11-.2-.87-1.15-.47-1.22.71-.13,2.18.87,3.05,1.35,3,1.77,6.64,3.86,9.83,5.56-3.31-3.31-7.61-7.05-10.86-10.18-.62-.59-2.18-1.62-.55-1.37a32.48,32.48,0,0,1,3.06,2.79c3.31,3.08,8,7,11.26,10.35-.79.46-3.5-1.12-4.75-1.81-3.65-2-6-3.64-9.38-5.39,1.46,2.45,3.55,5.22,4.9,7.83,0,.16-.09.19-.42.18-.93-.08-4.65-3-5.51-3.63-4.61-3.51-9.25-7.18-12.77-9.85C452,338.15,452.44,338.14,452.86,338.17Z" fill="#3e4147"/><path d="M451.34,347.92c-.21-.59-.38-1.25-.57-1.87-.26-1.07.25-1.41-1.29-2.95-1.1-1.12-2.78-2.7-3.88-3.69-.35-.32-1-.62-.72-.88s.5,0,.76,0a51.29,51.29,0,0,1,5.2,4.72c.3.28.64.71,1,1a31.13,31.13,0,0,0,3.24,1.75c1.22.65,2.36,1.24,3.31,1.76,2.44,1.33,4.69,2.46,6.9,3.68.35.33-.44.25-.66.37-4.38-2.07-8.44-4.42-12.41-6.53-.14,1.91,1.83,4.79,2.52,7.28-.39.09-.73-.13-1.15-.22A17.19,17.19,0,0,1,451.34,347.92Z" fill="#3e4147"/><path d="M426.53,342.6c-2.3-2.63,1-4,5.55-3.17-.12-.15,0-.37.5-.17a6.2,6.2,0,0,1,2.23,2l9.43,11.26c-3.6.76-9,.18-11.5-2.72-1.7-2-.83-3.42.51-4.2C431.07,345.2,428.23,344.43,426.53,342.6Zm6.16-2.44c-2.66-.66-5.53-.32-5.71.79,0,1.27,1.74,2.89,3.4,3.37,1.91.83,4.42.75,6.27.67Zm9.9,11.59c-1.88-1.83-3.62-4.4-5.35-6.05-3.14.23-5.11,1.32-3.84,3.61C435.24,352.08,439.61,351.88,442.59,351.75Z" fill="#3e4147"/><path d="M417.33,351a46.09,46.09,0,0,1-3.11-7.2c-.47-1.49-.6-2.75,0-3.54.85-1.08,4-1.18,6.11,0a19.59,19.59,0,0,1,3.06,2.5c3,2.85,5.73,7,8.27,10.64-1.47.86-3.16-2.46-4.06-3.79-1.82-2.55-2.5-4.17-5-6.49a17.44,17.44,0,0,0-3-2.52,5.5,5.5,0,0,0-3.43-.47c-1.05.36-1.19,1.7-.85,3a29.18,29.18,0,0,0,3.94,8.86c.32.56,1.17,1.34.93,1.92C418.62,354.14,417.8,352,417.33,351Z" fill="#3e4147"/><path d="M410.88,345c1.62,2.42,2.28,4.3,3.95,6.78.26.49,1.23,1.73.69,2.07-.86.29-2.51-.44-3.55-.39-2.81-1-6.17-2.55-8.16-5-3.48-3.91-3-9.06,4-8.23.22.42.68.22.78.4Zm3.15,7.85.31,0c-2.6-4.46-4.63-8.42-6.45-11.95-5.9-.76-6.11,3.63-3.36,7.12C406.29,350.56,410.12,352.46,414,352.84Z" fill="#3e4147"/><path d="M394.22,353.94c1.44-.06,2.68-1.11,3.42-1.55a6.15,6.15,0,0,0,.85-8.35c-1.52-1.89-5.42-3.25-8.76-2.35-1.9.54-.44,3.77-.11,5.48a17.84,17.84,0,0,0,2.27-.09c.73,0,2.06-.2,2,.36s-1.78.46-2.69.5-2.26.23-2.66-.18c-.33-.24-.09-.95-.21-1.42-.29-1.62-.88-3.38-.33-4.39a2.08,2.08,0,0,1,1-.89,12.65,12.65,0,0,1,7.2.55c3.73,1.57,5.57,5.64,4.3,8.91a6,6,0,0,1-2,2.5c-1.05.87-2.73,2.28-5,1.53-.37-.08-.79-.19-.82-.8C393.22,353.62,393.61,354,394.22,353.94Z" fill="#3e4147"/><path d="M385.57,353.94c-.46-2.18-.66-3.9-1.11-6-2.75-.14-5.95.23-8.4.07-.09-.79,1.74-.69,2.48-.72,1.67-.07,3.93,0,5.76-.1a53.76,53.76,0,0,0-1.13-5.35c-2.74,0-4.93.48-7.8.32-.24-.38.64-.53,1-.55a18.72,18.72,0,0,1,2.89-.11,16.72,16.72,0,0,1,4.69-.2,7.75,7.75,0,0,1,1,3.33c.64,2.84,1.53,6.89,2.08,10.36l-8.64.36c-.59,0-1.63.27-1.49-.46C379.39,354,382.66,354.24,385.57,353.94Z" fill="#3e4147"/><path d="M369,345.75a9.07,9.07,0,0,0,.07-2c0-.74-.46-2.28.81-1.93a6.26,6.26,0,0,1,.35,2.82,64.07,64.07,0,0,0,.55,10.12,32,32,0,0,0,3.23-.06c1-.11,2.58-.42,2.6.52-.84.51-2.36.37-3.87.44-1.34.05-3.18.08-4.61.05-1.09,0-3.56.53-3.47-.31s3.93-.48,4.79-.51C369.37,351.84,368.88,349,369,345.75Z" fill="#3e4147"/><path d="M315,323.23,190.92,339.31a4.24,4.24,0,0,1-.71,0L58.12,326.6a3.17,3.17,0,0,1-2.7-2.18l-1.56-4.89a3.14,3.14,0,0,1,2.7-4.08l94.59-9.25h.38l163,3.68a3.15,3.15,0,0,1,3.07,3.11l.09,7.08A3.13,3.13,0,0,1,315,323.23Z" fill="#d8e9f7" stroke="#3e4147" stroke-linecap="round" stroke-linejoin="round" stroke-width="1"/><path d="M177,309.15l108.48,2.07a.31.31,0,0,1,0,.62L180.24,322.15" fill="#eff6fb" stroke="#3e4046" stroke-linecap="round" stroke-linejoin="round" stroke-width="1"/><line x1="270.41" y1="310.93" x2="167.49" y2="318.55" fill="none" stroke="#3e4046" stroke-linecap="round" stroke-linejoin="round" stroke-width="1"/><line x1="240.91" y1="310.37" x2="160.15" y2="314.74" fill="none" stroke="#3e4046" stroke-linecap="round" stroke-linejoin="round" stroke-width="1"/><line x1="204.33" y1="309.67" x2="147.4" y2="312.56" fill="none" stroke="#3e4046" stroke-linecap="round" stroke-linejoin="round" stroke-width="1"/><line x1="268.54" y1="313.33" x2="159.18" y2="308.9" fill="none" stroke="#3e4046" stroke-linecap="round" stroke-linejoin="round" stroke-width="1"/><line x1="254.2" y1="314.83" x2="144.84" y2="310.4" fill="none" stroke="#3e4046" stroke-linecap="round" stroke-linejoin="round" stroke-width="1"/><line x1="229.3" y1="317.35" x2="155.38" y2="313.14" fill="none" stroke="#3e4046" stroke-linecap="round" stroke-linejoin="round" stroke-width="1"/><line x1="211.53" y1="318.87" x2="137.61" y2="314.66" fill="none" stroke="#3e4046" stroke-linecap="round" stroke-linejoin="round" stroke-width="1"/><path d="M189.46,326l4.31-1.23-10.24-17.82-32-.72h-.38l-94.59,9.25a3.14,3.14,0,0,0-2.7,4.08l1.56,4.89a3.18,3.18,0,0,0,2.7,2.18l132.09,12.72a3.39,3.39,0,0,0,.71,0h0a13.93,13.93,0,0,1-1.18-5.16Z" fill="#c4d7e9"/><path d="M315,323.23,190.92,339.31a4.24,4.24,0,0,1-.71,0L58.12,326.6a3.17,3.17,0,0,1-2.7-2.18l-1.56-4.89a3.14,3.14,0,0,1,2.7-4.08l94.59-9.25h.38l163,3.68a3.15,3.15,0,0,1,3.07,3.11l.09,7.08A3.13,3.13,0,0,1,315,323.23Z" fill="none" stroke="#3e4147" stroke-linecap="round" stroke-linejoin="round" stroke-width="1"/><path d="M262.74,316.53l-64,7c-10.75,1.29-10.72,1.6-10.72,1.6s0,.31,10.82-.72l64-6.83L294,314.16c16.51-1.85,16.47-2.26,16.47-2.26s0-.41-16.57,1.29Z" fill="#3e4147"/><path d="M180.06,186.13l17,137.58a8.22,8.22,0,0,1-8.93,9.2L54,320.33a8.22,8.22,0,0,1-7.34-6.8L24.78,185.41a8.22,8.22,0,0,1,8.28-9.6l139,3.11A8.23,8.23,0,0,1,180.06,186.13Z" fill="#d8e9f7"/><path d="M171.94,189.3,188,323.72a7.88,7.88,0,0,1-8.38,9l-126-12.36a7.87,7.87,0,0,1-6.9-6.66L26.16,188.52a7.92,7.92,0,0,1,7.77-9.38l130.51,3.12A7.86,7.86,0,0,1,171.94,189.3Z" fill="#c4d7e9"/><path d="M180.06,186.13l17,137.58a8.22,8.22,0,0,1-8.93,9.2L54,320.33a8.22,8.22,0,0,1-7.34-6.8L24.78,185.41a8.22,8.22,0,0,1,8.28-9.6l139,3.11A8.23,8.23,0,0,1,180.06,186.13Z" fill="none" stroke="#3e4147" stroke-linecap="round" stroke-linejoin="round" stroke-width="1"/><line x1="459" y1="329.23" x2="355.04" y2="336.51" fill="none" stroke="#85c3e9" stroke-linecap="round" stroke-linejoin="round" stroke-width="1"/><line x1="450.09" y1="324.47" x2="352.97" y2="327.31" fill="none" stroke="#85c3e9" stroke-linecap="round" stroke-linejoin="round" stroke-width="1"/><line x1="348.08" y1="320.38" x2="442.59" y2="316.75" fill="none" stroke="#85c3e9" stroke-linecap="round" stroke-linejoin="round" stroke-width="1"/><line x1="433.96" y1="314.2" x2="461.39" y2="335.17" fill="none" stroke="#85c3e9" stroke-linecap="round" stroke-linejoin="round" stroke-width="1"/><line x1="352.33" y1="317.87" x2="360.44" y2="340.76" fill="none" stroke="#85c3e9" stroke-linecap="round" stroke-linejoin="round" stroke-width="1"/><path d="M236.23,218.42c-3.58,3.93-8.47,5.31-10.91,3.09s-3.52-7.62.06-11.55,11.84-5.26,14.29-3S239.81,214.48,236.23,218.42Z" fill="#ff9d98"/><path d="M227.3,203.25c-3.58,3.93-8.46,5.31-10.9,3.09s-3-7.33.63-11.26,13-5.23,15.46-3S230.88,199.31,227.3,203.25Z" fill="#ff9d98"/><line x1="396.47" y1="123.75" x2="402.95" y2="116.19" fill="none" stroke="#3e4147" stroke-linecap="round" stroke-linejoin="round" stroke-width="2.41"/><path d="M319.07,164.35a16.51,16.51,0,0,1,2.59-10c2.13-3.26,7.07-4.45,11.13-2.8a14.39,14.39,0,0,1,7.22,6.22,13.45,13.45,0,0,1,1.71,8c-.46,5.3-1.29,16.74.53,19.33C342.26,185.05,324.7,180.49,319.07,164.35Z" fill="#d85927" stroke="#3e4147" stroke-miterlimit="10" stroke-width="1"/><path d="M330.81,160.05s-4.56,5.86-2.09,18" fill="none" stroke="#3e4147" stroke-linecap="round" stroke-linejoin="round" stroke-width="1"/><path d="M328.85,179.57a40.34,40.34,0,0,0,8.7,4.9,50.51,50.51,0,0,0,7.1,2.31,46,46,0,0,0,8.78,1.31,15.85,15.85,0,0,0,3.27-.1c.48-.09.48-.16.48-.16s0-.07-.45-.2-1.36-.33-3.16-.69-4.49-.89-8.4-2.06a58.88,58.88,0,0,1-6.73-2.46,40.86,40.86,0,0,1-8.18-4.72,31,31,0,0,1-6.57-6.64,27.9,27.9,0,0,1-3.39-6.16,24.68,24.68,0,0,1-.94-2.61c-.29-.8-.43-1.57-.62-2.25-.38-1.36-.5-2.48-.7-3.37a11.8,11.8,0,0,1-.2-1.19c-.06-.35-.1-.65-.14-.9-.09-.51-.16-.85-.22-1.08-.13-.46-.21-.46-.21-.46s-.07,0-.16.47c0,.23-.09.58-.14,1.1,0,.26-.05.57-.07.93a7,7,0,0,0,0,1.23,25.53,25.53,0,0,0,.3,3.58,19.75,19.75,0,0,0,.46,2.41,23.25,23.25,0,0,0,.82,2.83,26.9,26.9,0,0,0,3.41,6.75A30.94,30.94,0,0,0,328.85,179.57Z" fill="#3e4147"/><path d="M450.22,88.83s14.46,82.56-4.34,123.64c0,0,65.11-1.6,74.24-8.57,0,0,25.72-37.21,23-118.1C543.12,85.8,521.31,80.76,450.22,88.83Z" fill="#eff6fb"/><path d="M512,200.46c1.63-1.92,5.85-7.5,11-2.56a1.88,1.88,0,0,1,.35.43c.35-.67.72-1.41,1.11-2.21l-3.76-4.64c-.13-.16,0-.3.18-.31l6-.28c.37-.84.75-1.73,1.12-2.66-3.44-1.52-2.41-6-2.08-7.85a21.57,21.57,0,0,1,4.67,1.06c.27-.76.54-1.54.81-2.35l0,0a1.88,1.88,0,0,1-.65,0c-6.27-1-3.84-6.22-3.08-8.1,1.35.55,4.39,1.64,5.16,3.78,4.61-14.82,9-35.44,10.21-62.22l-1.05,1.47a1.26,1.26,0,0,0-.21.67l.19,10a.4.4,0,0,1-.4.38l-9.58.46a.38.38,0,0,1-.42-.34l-.19-9.94a1.35,1.35,0,0,0-.24-.65l-12.94-16c-.14-.16,0-.3.17-.31L529,97.79a.87.87,0,0,1,.64.28l6.56,9a.24.24,0,0,0,.43,0l6.14-9.58a.85.85,0,0,1,.59-.34c0-.65,0-1.29,0-1.94h-.09a2.25,2.25,0,0,1-.8-.1,1.45,1.45,0,0,1-.46-.57c-1.63-3.08-.56-5,1.22-6.18,0-.84,0-1.66-.07-2.5a58.16,58.16,0,0,0-7.05-.91c1.43,1.31,5.17,4.56.6,7.58a1.5,1.5,0,0,1-.53.23,1.12,1.12,0,0,1-.55-.17c-4.7-2.59-1-6.22.33-7.65-1.65-.14-3.61-.27-5.9-.38a6.49,6.49,0,0,1-.77,1.3,1.28,1.28,0,0,1-.46.43,2.26,2.26,0,0,1-.66,0,5,5,0,0,1-3.62-1.92l-3.2,0a3.64,3.64,0,0,1,0,3.27,1.09,1.09,0,0,1-.3.46,1.71,1.71,0,0,1-.57.13c-3.82.2-4.71-1.91-4.82-3.86-7.38.06-16.47.37-27.52,1.09-.37,1.55-1.5,2.94-4.52,3.07a1.64,1.64,0,0,1-.58-.07.9.9,0,0,1-.31-.42,4.43,4.43,0,0,1-.47-2.16l-3.8.29a6.9,6.9,0,0,1-2.61,1.21,2.18,2.18,0,0,1-.66.06,1,1,0,0,1-.48-.39c-.15-.18-.28-.36-.41-.54l-6,.54c1.57,1.44,4.62,4.48.33,7.32a1.74,1.74,0,0,1-.54.24,1.31,1.31,0,0,1-.54-.18c-4.36-2.41-1.51-5.7,0-7.31l-6.39.63a1.13,1.13,0,0,1-.42.38,1.88,1.88,0,0,1-.65,0c-.31-.06-.59-.12-.85-.19l-5.71.61a7.37,7.37,0,0,1-.28.88,1.09,1.09,0,0,1-.3.46,1.85,1.85,0,0,1-.58.13,7.24,7.24,0,0,1-1.94-.14c.11.65.26,1.62.45,2.88a5.93,5.93,0,0,1,1,2.89,1.24,1.24,0,0,1-.08.71,1.25,1.25,0,0,1-.33.3c.14,1.06.31,2.21.47,3.45l9-.43a.87.87,0,0,1,.64.28l6.56,9a.24.24,0,0,0,.42,0l6.14-9.59a.88.88,0,0,1,.62-.34l10.7-.51c.23,0,.31.12.19.29l-12.31,17.18a1.26,1.26,0,0,0-.21.67l.19,10a.4.4,0,0,1-.4.38l-9.58.46a.37.37,0,0,1-.41-.34l-.2-9.94a1.22,1.22,0,0,0-.24-.65l-10.71-13.22c.3,2.42.62,5.09.92,8a6.11,6.11,0,0,1,1.65-.29,1,1,0,0,1,.48.06,1.11,1.11,0,0,1,.26.35c1.11,2.42-.33,3.7-1.93,4.41,2.12,21.93,3.5,53.31-1.91,78.4l9.22-.44a.88.88,0,0,1,.63.28l6.57,9a.24.24,0,0,0,.43,0l6.13-9.58a.88.88,0,0,1,.62-.34l10.7-.52c.23,0,.31.12.19.29l-12.3,17.18a1.22,1.22,0,0,0-.22.68v.63c18.89-1.2,41.31-3.41,46.39-7.29,0,0,.58-.83,1.54-2.51C518.43,204.47,513.85,201.54,512,200.46ZM536.16,93.91c1.36,1.26,5.35,4.58.68,7.66a1.55,1.55,0,0,1-.53.23,1.1,1.1,0,0,1-.54-.17C531,99,534.85,95.3,536.16,93.91ZM523.33,87.5c2.62.39,10,1.14,7,7.55a1.56,1.56,0,0,1-.44.61,2.35,2.35,0,0,1-.79.18C521.36,96.33,522.91,89.83,523.33,87.5Zm-61.06,9.35a1.66,1.66,0,0,1-.44.61,2.49,2.49,0,0,1-.79.18c-7.76.5-6.22-6-5.8-8.34C457.86,89.69,465.26,90.44,462.27,96.85Zm6.49,6.53a1.92,1.92,0,0,1-.54.23,1.06,1.06,0,0,1-.54-.18c-4.77-2.63-.91-6.33.39-7.71C469.43,97,473.43,100.29,468.76,103.38ZM475.14,97a2.33,2.33,0,0,1-.79-.11,1.37,1.37,0,0,1-.47-.57c-3.23-6.1,4.12-7.56,6.72-8.2C481.11,90.37,482.91,96.71,475.14,97Zm-18.09,77c2,.82,7.76,2.84,4.2,7.67a1.25,1.25,0,0,1-.47.42,1.89,1.89,0,0,1-.65,0C453.87,181,456.29,175.86,457.05,174Zm5.3,16.92a1.56,1.56,0,0,1-.44.61,2.35,2.35,0,0,1-.79.18c-7.76.5-6.21-6-5.79-8.34C458,183.73,465.34,184.48,462.35,190.89Zm60-3.55a2.35,2.35,0,0,1-.61.48c-6.73,3.63-8.78-2.64-9.66-4.83,2.57-.74,9.64-3.14,10.34,3.65A1.22,1.22,0,0,1,522.38,187.34Zm-9.11-31.55a1.18,1.18,0,0,1,.24-.38,1,1,0,0,1,.47-.11c4.73-.25,4,3.79,3.85,5.25C516.23,160.29,511.67,159.76,513.27,155.79Zm10.57,24.63a1.09,1.09,0,0,1-.3.46,1.85,1.85,0,0,1-.58.13c-5.73.3-4.87-4.6-4.66-6.37C520.25,175,525.78,175.61,523.84,180.42Zm-7.68-28a1.48,1.48,0,0,1-.21-.68,1.3,1.3,0,0,1,.39-.63c5-5.42,9.39-.26,11.08,1.5C525.28,154,519.5,158.43,516.16,152.37Zm4.65-6.3a1.21,1.21,0,0,1-.3-.44.93.93,0,0,1,.18-.5c2.73-4.53,7.11-1.61,8.75-.64C528.09,145.84,524.54,149.77,520.81,146.07Zm-3.64-5.18a1.83,1.83,0,0,1-.64-.42,1.35,1.35,0,0,1-.1-.7c.44-6.84,7.59-5.12,10.18-4.63C525.83,137.42,524,143.87,517.17,140.89Zm-1.46-6.69a1.57,1.57,0,0,1-.58-.07,1,1,0,0,1-.32-.42c-2.12-4.63,3.37-5.8,5.31-6.31C520.4,129.14,521.44,134,515.71,134.2Zm7.69-25.12a1.24,1.24,0,0,1,.27.35c1.74,3.81-2.78,4.78-4.38,5.2-.23-1.44-1.09-5.4,3.64-5.61A1,1,0,0,1,523.4,109.08Zm-3-4.07a1.34,1.34,0,0,1,.42.6,1.62,1.62,0,0,1-.19.69c-3.1,6.37-9,2.54-11.24,1.28C511,105.66,515.26,100.08,520.42,105Zm-.52-11.26a1.24,1.24,0,0,1-.08.71,2.35,2.35,0,0,1-.61.48c-6.73,3.63-8.78-2.64-9.65-4.83C512.12,89.37,519.19,87,519.9,93.75Zm-4,5.76a.87.87,0,0,1,.19.48,1.4,1.4,0,0,1-.27.47c-3.59,4.06-7.28.47-8.68-.75C508.68,98.58,513,95.25,515.85,99.51Zm-5.16,25.16c.84,1.82,3.46,6.75-2.76,8.38a2.14,2.14,0,0,1-.65.06,1,1,0,0,1-.48-.39C503.06,128.26,508.71,125.68,510.69,124.67Zm2.08,9.19c.5,2.3,2.3,8.63-5.46,8.88a2.4,2.4,0,0,1-.8-.11,1.4,1.4,0,0,1-.46-.56C502.82,136,510.17,134.5,512.77,133.86Zm-12.91-12.34c1.73,1.49,6.83,5.42.86,9.11a2.23,2.23,0,0,1-.69.28,1.6,1.6,0,0,1-.69-.22C493.24,127.59,498.18,123.17,499.86,121.52Zm.38,20c1.36,1.26,5.35,4.57.68,7.65a1.62,1.62,0,0,1-.53.24,1.27,1.27,0,0,1-.54-.18C495.07,146.57,498.93,142.88,500.24,141.5Zm-.17-9.11c1.36,1.26,5.35,4.58.68,7.66a1.78,1.78,0,0,1-.53.23,1,1,0,0,1-.54-.18C494.89,137.48,498.76,133.78,500.07,132.39Zm-11.43-32.1a1.15,1.15,0,0,1-.29-.44.85.85,0,0,1,.18-.5c2.72-4.53,7.11-1.61,8.75-.65C495.93,100.06,492.38,104,488.64,100.29ZM485,95.12a1.86,1.86,0,0,1-.63-.43,1.19,1.19,0,0,1-.1-.69c.44-6.84,7.59-5.13,10.18-4.63C493.67,91.64,491.86,98.09,485,95.12Zm-.82,10.17c5-5.42,9.39-.26,11.08,1.51-2.15,1.46-7.92,5.85-11.27-.2a1.78,1.78,0,0,1-.21-.68A1.34,1.34,0,0,1,484.18,105.29Zm10.25,37.33a1.41,1.41,0,0,1-.44.61,2.13,2.13,0,0,1-.79.18c-7.76.5-6.21-6-5.79-8.34C490,135.47,497.42,136.22,494.43,142.62Zm-5.3-16.91c2,.82,7.76,2.84,4.2,7.66a1.21,1.21,0,0,1-.47.43,2.19,2.19,0,0,1-.65,0C485.94,132.77,488.37,127.6,489.13,125.71Zm-8-15.7a1.31,1.31,0,0,1,.24-.38,1.4,1.4,0,0,1,.48-.11c4.73-.24,4,3.8,3.85,5.26C484.06,114.52,479.51,114,481.11,110Zm-1.29,19.32c1.95.33,7.48,1,5.54,5.78a1.09,1.09,0,0,1-.3.46,1.85,1.85,0,0,1-.58.13C478.76,136,479.62,131.1,479.82,129.33Zm4.15,12a1.26,1.26,0,0,1-.07.71,2,2,0,0,1-.61.48c-6.73,3.64-8.78-2.63-9.66-4.83C476.21,136.94,483.27,134.55,484,141.33Zm.77,12.55c-3.11,6.37-9,2.55-11.24,1.28,1.62-1.92,5.84-7.5,11-2.57a1.44,1.44,0,0,1,.42.6A1.57,1.57,0,0,1,484.74,153.88ZM487,156.6a1,1,0,0,1,.48.07.92.92,0,0,1,.26.34c1.75,3.81-2.78,4.79-4.38,5.21C483.15,160.78,482.28,156.81,487,156.6Zm-11.16,24.71a1.85,1.85,0,0,1-.65.06,1.07,1.07,0,0,1-.48-.38c-3.74-4.48,1.91-7,3.89-8.06C479.45,174.75,482.07,179.68,475.85,181.31Zm4.08-34.23a1,1,0,0,1,.2.48,1.61,1.61,0,0,1-.27.47c-3.59,4.06-7.28.48-8.68-.74C472.77,146.16,477,142.83,479.93,147.08Zm-11.08,50.34a1.89,1.89,0,0,1-.53.23,1.14,1.14,0,0,1-.54-.18c-4.78-2.63-.92-6.33.38-7.71C469.52,191,473.52,194.33,468.85,197.42ZM468,180.66c1.37,1.26,5.36,4.57.69,7.65a1.62,1.62,0,0,1-.53.24,1.27,1.27,0,0,1-.54-.18C462.81,185.73,466.68,182,468,180.66Zm.66-1.77a2.23,2.23,0,0,1-.69.28,1.51,1.51,0,0,1-.69-.21c-6.1-3.11-1.16-7.53.51-9.19C469.51,171.27,474.61,175.21,468.64,178.89ZM475.23,191a2.4,2.4,0,0,1-.8-.11,1.45,1.45,0,0,1-.46-.57c-3.23-6.1,4.12-7.56,6.71-8.2C481.19,184.41,483,190.75,475.23,191Zm7.83-8.61a1,1,0,0,1-.32-.43c-2.12-4.62,3.37-5.79,5.31-6.3.27,1.73,1.31,6.55-4.42,6.8A1.54,1.54,0,0,1,483.06,182.39Zm2,6.76a1.82,1.82,0,0,1-.64-.43,1.28,1.28,0,0,1-.1-.69c.44-6.84,7.59-5.13,10.18-4.63C493.76,185.68,492,192.13,485.09,189.15Zm.68,19.67c-1.62-.27-6.17-.81-4.58-4.77a1.17,1.17,0,0,1,.25-.38,1.13,1.13,0,0,1,.47-.11C486.64,203.32,485.93,207.36,485.77,208.82Zm-1.69-8.19a1.48,1.48,0,0,1-.21-.68,1.34,1.34,0,0,1,.39-.63c5-5.42,9.39-.26,11.08,1.51C493.19,202.3,487.43,206.68,484.08,200.63Zm4.66-6.3a1.21,1.21,0,0,1-.3-.44,1,1,0,0,1,.18-.51c2.73-4.52,7.11-1.6,8.75-.64C496,194.1,492.47,198,488.74,194.33ZM506,172.25a.39.39,0,0,1-.4.38l-9.57.46a.38.38,0,0,1-.42-.34l-.19-9.95a1.29,1.29,0,0,0-.24-.65l-12.95-16c-.13-.17-.05-.3.18-.31l10.66-.51a.81.81,0,0,1,.63.28l6.56,9a.25.25,0,0,0,.43,0l6.13-9.59a.88.88,0,0,1,.62-.34l10.7-.52c.23,0,.31.13.19.3L506,161.63a1.19,1.19,0,0,0-.22.67Zm12.42,20.14a1,1,0,0,1,.2.48,1.76,1.76,0,0,1-.27.48c-3.59,4.05-7.29.47-8.68-.75C511.25,191.47,515.51,188.13,518.41,192.39Z" fill="#d8e9f7"/><path d="M463.32,211.06a1.25,1.25,0,0,0-.23-.65l-11.75-14.49c-.28,1.19-.57,2.36-.88,3.52a7.91,7.91,0,0,1,2,1.42,1.24,1.24,0,0,1,.41.59,1.61,1.61,0,0,1-.18.7c-1.11,2.25-2.57,3.23-4.09,3.49q-1.21,3.57-2.7,6.83s7.35-.18,17.46-.68Zm-12-.58c-.22-1.44-1.09-5.4,3.64-5.61a1,1,0,0,1,.48.06,1.08,1.08,0,0,1,.26.35C457.42,209.09,452.9,210.05,451.29,210.48Z" fill="#d8e9f7"/><path d="M450.22,88.83s14.46,82.56-4.34,123.64c0,0,65.11-1.6,74.24-8.57,0,0,25.72-37.21,23-118.1C543.12,85.8,521.31,80.76,450.22,88.83Z" fill="none" stroke="#3e4147" stroke-miterlimit="10" stroke-width="1"/><path d="M530.85,180.37S518,163.55,512.14,147.66a2.41,2.41,0,0,1,1.94-3.18,31.49,31.49,0,0,1,11.58.51s-6.71-7.51-8.72-12.59a1.07,1.07,0,0,1,.78-1.41c4.63-1.13,22-4.07,26.62,13.89,2.1,8.12-2.58,28.84-7.9,40.14" fill="#ff9d98" stroke="#3e4147" stroke-linecap="round" stroke-linejoin="round" stroke-width="1"/><line x1="334.38" y1="138.51" x2="290.46" y2="136.67" fill="none" stroke="#3e4046" stroke-linecap="round" stroke-linejoin="round" stroke-width="2.32"/></svg>